<svg xmlns="http://www.w3.org/2000/svg" xmlns:xlink="http://www.w3.org/1999/xlink" width="0" height="0" style="display:none;"><symbol viewBox="0 0 24 24" id="github-line"><path d="M5.88401 18.6531C5.58404 18.4523 5.32587 18.1972 5.0239 17.8366C4.91473 17.7062 4.47283 17.1521 4.55811 17.258C4.09533 16.6831 3.80296 16.4168 3.50156 16.3087C2.9817 16.1223 2.7114 15.5497 2.89784 15.0298C3.08428 14.51 3.65685 14.2397 4.17672 14.4261C4.92936 14.696 5.43847 15.1609 6.12425 16.0141C6.03025 15.8972 6.46364 16.4408 6.55731 16.5526C6.74784 16.7802 6.88732 16.918 6.99629 16.9909C7.20118 17.128 7.58451 17.1871 8.14709 17.1308C8.17065 16.7487 8.24136 16.378 8.34919 16.0355C5.38097 15.3101 3.70116 13.3949 3.70116 9.63947C3.70116 8.4006 4.0704 7.28368 4.75917 6.34756C4.5415 5.45368 4.57433 4.37259 5.06092 3.15611C5.1725 2.87715 5.40361 2.66314 5.69031 2.57328C5.77242 2.54949 5.81791 2.5389 5.89878 2.52648C6.70167 2.40319 7.83573 2.69681 9.31449 3.62311C10.181 3.41855 11.0885 3.31476 12.0012 3.31476C12.9129 3.31476 13.8196 3.41835 14.6854 3.62253C16.1619 2.68976 17.2986 2.39625 18.1072 2.52627C18.1919 2.53988 18.2645 2.55758 18.3249 2.57741C18.6059 2.66967 18.8316 2.88155 18.9414 3.15611C19.4279 4.37232 19.4608 5.45319 19.2433 6.34695C19.9342 7.28313 20.3012 8.39184 20.3012 9.63947C20.3012 13.3966 18.627 15.3046 15.6588 16.0318C15.7837 16.4467 15.8496 16.9103 15.8496 17.4118C15.8496 18.0763 15.8471 18.7108 15.8424 19.4223C15.8412 19.6124 15.8397 19.8156 15.8375 20.1279C16.2129 20.2107 16.5229 20.5074 16.6031 20.9086C16.7114 21.4502 16.3602 21.977 15.8186 22.0853C14.6794 22.3132 13.8353 21.5535 13.8353 20.5608C13.8353 20.4705 13.836 20.3414 13.8375 20.1142C13.8398 19.8012 13.8412 19.5987 13.8425 19.4092C13.8471 18.7017 13.8496 18.0714 13.8496 17.4118C13.8496 16.7145 13.6664 16.26 13.4237 16.0508C12.7627 15.481 13.0977 14.3971 13.965 14.2996C16.9314 13.9663 18.3012 12.8174 18.3012 9.63947C18.3012 8.68484 17.9893 7.89547 17.3881 7.23534C17.1301 6.95209 17.0567 6.54634 17.199 6.19062C17.3647 5.77639 17.4354 5.2336 17.2941 4.57678L17.2847 4.57944C16.7928 4.71861 16.1744 5.01956 15.4261 5.52826C15.182 5.69413 14.8772 5.74377 14.5932 5.66388C13.7729 5.43319 12.8913 5.31476 12.0012 5.31476C11.111 5.31476 10.2294 5.43319 9.40916 5.66388C9.12662 5.74335 8.82344 5.69468 8.57997 5.53077C7.8274 5.02414 7.2056 4.72355 6.71079 4.58352C6.56735 5.23672 6.63814 5.77758 6.80336 6.19062C6.94565 6.54634 6.87219 6.95209 6.61423 7.23534C6.01715 7.89096 5.70116 8.69352 5.70116 9.63947C5.70116 12.8114 7.07225 13.9681 10.023 14.2996C10.8883 14.3969 11.2246 15.4767 10.5675 16.048C10.3751 16.2153 10.1384 16.7799 10.1384 17.4118V20.5608C10.1384 21.5472 9.30356 22.2866 8.17878 22.0898C7.63476 21.9946 7.27093 21.4764 7.36613 20.9324C7.43827 20.5201 7.75331 20.2114 8.13841 20.1274V19.1379C7.22829 19.1991 6.47656 19.0496 5.88401 18.6531Z"></path></symbol><symbol viewBox="0 0 24 24" id="bilibili-line"><path d="M7.17157 2.75725L10.414 5.99936H13.585L16.8284 2.75725C17.219 2.36672 17.8521 2.36672 18.2426 2.75725C18.6332 3.14777 18.6332 3.78094 18.2426 4.17146L16.414 5.99936L18.5 5.99989C20.433 5.99989 22 7.56689 22 9.49989V17.4999C22 19.4329 20.433 20.9999 18.5 20.9999H5.5C3.567 20.9999 2 19.4329 2 17.4999V9.49989C2 7.56689 3.567 5.99989 5.5 5.99989L7.585 5.99936L5.75736 4.17146C5.36684 3.78094 5.36684 3.14777 5.75736 2.75725C6.14788 2.36672 6.78105 2.36672 7.17157 2.75725ZM18.5 7.99989H5.5C4.7203 7.99989 4.07955 8.59478 4.00687 9.35543L4 9.49989V17.4999C4 18.2796 4.59489 18.9203 5.35554 18.993L5.5 18.9999H18.5C19.2797 18.9999 19.9204 18.405 19.9931 17.6444L20 17.4999V9.49989C20 8.67146 19.3284 7.99989 18.5 7.99989ZM8 10.9999C8.55228 10.9999 9 11.4476 9 11.9999V13.9999C9 14.5522 8.55228 14.9999 8 14.9999C7.44772 14.9999 7 14.5522 7 13.9999V11.9999C7 11.4476 7.44772 10.9999 8 10.9999ZM16 10.9999C16.5523 10.9999 17 11.4476 17 11.9999V13.9999C17 14.5522 16.5523 14.9999 16 14.9999C15.4477 14.9999 15 14.5522 15 13.9999V11.9999C15 11.4476 15.4477 10.9999 16 10.9999Z"></path></symbol><symbol viewBox="0 0 24 24" id="facebook-fill"><path d="M14 13.5H16.5L17.5 9.5H14V7.5C14 6.47062 14 5.5 16 5.5H17.5V2.1401C17.1743 2.09685 15.943 2 14.6429 2C11.9284 2 10 3.65686 10 6.69971V9.5H7V13.5H10V22H14V13.5Z"></path></symbol><symbol viewBox="0 0 24 24" id="search-line"><path d="M18.031 16.6168L22.3137 20.8995L20.8995 22.3137L16.6168 18.031C15.0769 19.263 13.124 20 11 20C6.032 20 2 15.968 2 11C2 6.032 6.032 2 11 2C15.968 2 20 6.032 20 11C20 13.124 19.263 15.0769 18.031 16.6168ZM16.0247 15.8748C17.2475 14.6146 18 12.8956 18 11C18 7.1325 14.8675 4 11 4C7.1325 4 4 7.1325 4 11C4 14.8675 7.1325 18 11 18C12.8956 18 14.6146 17.2475 15.8748 16.0247L16.0247 15.8748Z"></path></symbol><symbol viewBox="0 0 24 24" id="price-tag-3-line"><path d="M10.9042 2.1001L20.8037 3.51431L22.2179 13.4138L13.0255 22.6062C12.635 22.9967 12.0019 22.9967 11.6113 22.6062L1.71184 12.7067C1.32131 12.3162 1.32131 11.683 1.71184 11.2925L10.9042 2.1001ZM11.6113 4.22142L3.83316 11.9996L12.3184 20.4849L20.0966 12.7067L19.036 5.28208L11.6113 4.22142ZM13.7327 10.5854C12.9516 9.80433 12.9516 8.538 13.7327 7.75695C14.5137 6.9759 15.78 6.9759 16.5611 7.75695C17.3421 8.538 17.3421 9.80433 16.5611 10.5854C15.78 11.3664 14.5137 11.3664 13.7327 10.5854Z"></path></symbol><symbol viewBox="0 0 24 24" id="calendar-check-line"><path d="M9 1V3H15V1H17V3H21C21.5523 3 22 3.44772 22 4V20C22 20.5523 21.5523 21 21 21H3C2.44772 21 2 20.5523 2 20V4C2 3.44772 2.44772 3 3 3H7V1H9ZM20 10H4V19H20V10ZM15.0355 11.136L16.4497 12.5503L11.5 17.5L7.96447 13.9645L9.37868 12.5503L11.5 14.6716L15.0355 11.136ZM7 5H4V8H20V5H17V6H15V5H9V6H7V5Z"></path></symbol><symbol viewBox="0 0 24 24" id="eye-line"><path d="M12.0003 3C17.3924 3 21.8784 6.87976 22.8189 12C21.8784 17.1202 17.3924 21 12.0003 21C6.60812 21 2.12215 17.1202 1.18164 12C2.12215 6.87976 6.60812 3 12.0003 3ZM12.0003 19C16.2359 19 19.8603 16.052 20.7777 12C19.8603 7.94803 16.2359 5 12.0003 5C7.7646 5 4.14022 7.94803 3.22278 12C4.14022 16.052 7.7646 19 12.0003 19ZM12.0003 16.5C9.51498 16.5 7.50026 14.4853 7.50026 12C7.50026 9.51472 9.51498 7.5 12.0003 7.5C14.4855 7.5 16.5003 9.51472 16.5003 12C16.5003 14.4853 14.4855 16.5 12.0003 16.5ZM12.0003 14.5C13.381 14.5 14.5003 13.3807 14.5003 12C14.5003 10.6193 13.381 9.5 12.0003 9.5C10.6196 9.5 9.50026 10.6193 9.50026 12C9.50026 13.3807 10.6196 14.5 12.0003 14.5Z"></path></symbol><symbol viewBox="0 0 24 24" id="message-2-fill"><path d="M6.45455 19L2 22.5V4C2 3.44772 2.44772 3 3 3H21C21.5523 3 22 3.44772 22 4V18C22 18.5523 21.5523 19 21 19H6.45455ZM7 10V12H9V10H7ZM11 10V12H13V10H11ZM15 10V12H17V10H15Z"></path></symbol><symbol viewBox="0 0 24 24" id="message-2-line"><path d="M6.45455 19L2 22.5V4C2 3.44772 2.44772 3 3 3H21C21.5523 3 22 3.44772 22 4V18C22 18.5523 21.5523 19 21 19H6.45455ZM5.76282 17H20V5H4V18.3851L5.76282 17ZM11 10H13V12H11V10ZM7 10H9V12H7V10ZM15 10H17V12H15V10Z"></path></symbol><symbol viewBox="0 0 24 24" id="arrow-right-double-line"><path d="M19.1643 12.0001L12.9572 5.79297L11.543 7.20718L16.3359 12.0001L11.543 16.793L12.9572 18.2072L19.1643 12.0001ZM13.5144 12.0001L7.30728 5.79297L5.89307 7.20718L10.686 12.0001L5.89307 16.793L7.30728 18.2072L13.5144 12.0001Z"></path></symbol><symbol viewBox="0 0 24 24" id="arrow-right-s-line"><path d="M13.1714 12.0007L8.22168 7.05093L9.63589 5.63672L15.9999 12.0007L9.63589 18.3646L8.22168 16.9504L13.1714 12.0007Z"></path></symbol><symbol viewBox="0 0 24 24" id="home-3-line"><path d="M19 21.0001H5C4.44772 21.0001 4 20.5524 4 20.0001V11.0001L1 11.0001L11.3273 1.61162C11.7087 1.26488 12.2913 1.26488 12.6727 1.61162L23 11.0001L20 11.0001V20.0001C20 20.5524 19.5523 21.0001 19 21.0001ZM6 19.0001H18V9.15757L12 3.70302L6 9.15757V19.0001ZM8 15.0001H16V17.0001H8V15.0001Z"></path></symbol><symbol viewBox="0 0 24 24" id="qq-fill"><path d="M19.9139 14.529C19.7336 13.955 19.4877 13.2856 19.2385 12.643L18.3288 10.3969C18.3295 10.371 18.3408 9.92858 18.3408 9.70053C18.3408 5.8599 16.5082 2.00037 12.0009 2C7.49403 2.00037 5.66113 5.8599 5.66113 9.70053C5.66113 9.92858 5.67237 10.371 5.67312 10.3969L4.76379 12.643C4.51453 13.2856 4.26827 13.955 4.08798 14.529C3.2285 17.2657 3.507 18.3982 3.71915 18.4238C4.17419 18.4779 5.49021 16.3635 5.49021 16.3635C5.49021 17.5879 6.12741 19.1858 7.5064 20.3398C6.99064 20.4971 6.35868 20.7388 5.95237 21.0355C5.58729 21.3025 5.63302 21.5743 5.69861 21.6841C5.9876 22.1661 10.6542 21.9918 12.0017 21.8417C13.3488 21.9918 18.0158 22.1661 18.3044 21.6841C18.3704 21.5743 18.4157 21.3025 18.0507 21.0355C17.6443 20.7388 17.012 20.4971 16.4959 20.3395C17.8745 19.1858 18.5117 17.5879 18.5117 16.3635C18.5117 16.3635 19.8281 18.4779 20.2831 18.4238C20.4949 18.3982 20.7734 17.2657 19.9139 14.529Z"></path></symbol><symbol viewBox="0 0 24 24" id="wechat-fill"><path d="M18.5753 13.7114C19.0742 13.7114 19.4733 13.2873 19.4733 12.8134C19.4733 12.3145 19.0742 11.9155 18.5753 11.9155C18.0765 11.9155 17.6774 12.3145 17.6774 12.8134C17.6774 13.3123 18.0765 13.7114 18.5753 13.7114ZM14.1497 13.7114C14.6485 13.7114 15.0476 13.2873 15.0476 12.8134C15.0476 12.3145 14.6485 11.9155 14.1497 11.9155C13.6508 11.9155 13.2517 12.3145 13.2517 12.8134C13.2517 13.3123 13.6508 13.7114 14.1497 13.7114ZM20.717 18.7516C20.5942 18.8253 20.5205 18.9482 20.5451 19.1202C20.5451 19.1693 20.5451 19.2185 20.5696 19.2676C20.6679 19.6854 20.8643 20.349 20.8643 20.3736C20.8643 20.4473 20.8889 20.4964 20.8889 20.5456C20.8889 20.6685 20.7907 20.7668 20.6679 20.7668C20.6187 20.7668 20.5942 20.7422 20.5451 20.7176L19.0961 19.882C18.9978 19.8329 18.875 19.7837 18.7522 19.7837C18.6786 19.7837 18.6049 19.7837 18.5558 19.8083C17.8681 20.0049 17.1559 20.1032 16.3946 20.1032C12.7352 20.1032 9.78815 17.6456 9.78815 14.5983C9.78815 11.5509 12.7352 9.09329 16.3946 9.09329C20.0539 9.09329 23.001 11.5509 23.001 14.5983C23.001 16.2448 22.1168 17.7439 20.717 18.7516ZM16.6737 8.09757C16.581 8.09473 16.488 8.09329 16.3946 8.09329C12.2199 8.09329 8.78815 10.9536 8.78815 14.5983C8.78815 15.1519 8.86733 15.6874 9.01626 16.1975H8.92711C8.04096 16.1975 7.15481 16.0503 6.3425 15.8296C6.26866 15.805 6.19481 15.805 6.12097 15.805C5.97327 15.805 5.82558 15.8541 5.7025 15.9277L3.95482 16.9334C3.90559 16.958 3.85635 16.9825 3.80712 16.9825C3.65943 16.9825 3.53636 16.8599 3.53636 16.7127C3.53636 16.6391 3.56097 16.59 3.58559 16.5164C3.6102 16.4919 3.83174 15.6824 3.95482 15.1918C3.95482 15.1427 3.97943 15.0691 3.97943 15.0201C3.97943 14.8238 3.88097 14.6766 3.75789 14.5785C2.05944 13.3765 1.00098 11.5858 1.00098 9.59876C1.00098 5.94369 4.5702 3 8.95173 3C12.7157 3 15.8802 5.16856 16.6737 8.09757ZM11.5199 8.51604C12.0927 8.51604 12.5462 8.03871 12.5462 7.4898C12.5462 6.91701 12.0927 6.46356 11.5199 6.46356C10.9471 6.46356 10.4937 6.91701 10.4937 7.4898C10.4937 8.06258 10.9471 8.51604 11.5199 8.51604ZM6.26045 8.51604C6.83324 8.51604 7.28669 8.03871 7.28669 7.4898C7.28669 6.91701 6.83324 6.46356 6.26045 6.46356C5.68767 6.46356 5.23421 6.91701 5.23421 7.4898C5.23421 8.06258 5.68767 8.51604 6.26045 8.51604Z"></path></symbol><symbol viewBox="0 0 24 24" id="weibo-fill"><path d="M4.27799 8.59201C7.05085 5.8217 10.282 4.55876 11.4966 5.77587C12.0338 6.31312 12.0848 7.23996 11.741 8.34757C11.5628 8.9052 12.2655 8.5971 12.2655 8.5971C14.5062 7.66008 16.4618 7.60407 17.1747 8.62511C17.5541 9.16746 17.5184 9.93133 17.1671 10.8149C17.0041 11.2223 17.2154 11.2859 17.5261 11.3776C18.789 11.7697 20.1945 12.7144 20.1945 14.3822C20.1945 17.1448 16.2148 20.6205 10.2311 20.6205C5.66569 20.6205 1.00098 18.4078 1.00098 14.7692C1.00098 12.8671 2.20535 10.6672 4.27799 8.59201ZM16.4108 14.3338C16.174 11.9429 13.0294 10.2954 9.38829 10.657C5.74717 11.016 2.9845 13.2465 3.2213 15.6375C3.4581 18.0309 6.60271 19.6758 10.2438 19.3168C13.885 18.9552 16.6451 16.7247 16.4108 14.3338ZM6.16221 14.4382C6.91589 12.9104 8.87395 12.0473 10.6079 12.4979C12.4005 12.9614 13.3146 14.6521 12.5838 16.2969C11.8403 17.98 9.70148 18.8763 7.88856 18.2906C6.13674 17.7254 5.39579 15.9965 6.16221 14.4382ZM8.8765 15.0162C8.31378 14.7794 7.58556 15.0238 7.23672 15.5687C6.88279 16.1162 7.0483 16.7705 7.60847 17.0252C8.17628 17.2823 8.93252 17.0379 9.2839 16.4752C9.63019 15.9074 9.44686 15.2581 8.8765 15.0162ZM10.2642 14.4382C10.0478 14.3542 9.77787 14.456 9.65056 14.6699C9.52834 14.8838 9.59709 15.1282 9.81352 15.2173C10.0325 15.309 10.3151 15.2046 10.4424 14.9856C10.5647 14.7666 10.4857 14.5197 10.2642 14.4382ZM15.9576 2.92408C17.9258 2.50649 20.0545 3.12017 21.5008 4.71918C22.947 6.31822 23.3341 8.50034 22.7204 10.4228C22.5796 10.8639 22.1036 11.1075 21.6612 10.9626C21.2181 10.8174 20.9762 10.3438 21.1188 9.90078C21.5568 8.54108 21.2806 6.98652 20.2531 5.84971C19.2244 4.71154 17.712 4.27613 16.3115 4.57404C15.8558 4.67099 15.41 4.37994 15.3109 3.92475C15.2115 3.46897 15.5018 3.02078 15.9576 2.92408ZM16.584 5.84971C17.5414 5.64601 18.5802 5.94392 19.283 6.72307C19.9858 7.50222 20.1742 8.56655 19.8737 9.49847C19.7511 9.87865 19.3409 10.089 18.9596 9.96443C18.5777 9.83967 18.3714 9.43227 18.4962 9.04779C18.6464 8.59201 18.5522 8.07258 18.2085 7.69064C17.8622 7.31125 17.3555 7.16611 16.887 7.26542C16.4949 7.35199 16.1104 7.09991 16.0263 6.71034C15.9423 6.31822 16.1917 5.93316 16.584 5.84971Z"></path></symbol><symbol viewBox="0 0 24 24" id="tiktok-fill"><path d="M16 8.24537V15.5C16 19.0899 13.0899 22 9.5 22C5.91015 22 3 19.0899 3 15.5C3 11.9101 5.91015 9 9.5 9C10.0163 9 10.5185 9.06019 11 9.17393V12.3368C10.5454 12.1208 10.0368 12 9.5 12C7.567 12 6 13.567 6 15.5C6 17.433 7.567 19 9.5 19C11.433 19 13 17.433 13 15.5V2H16C16 4.76142 18.2386 7 21 7V10C19.1081 10 17.3696 9.34328 16 8.24537Z"></path></symbol><symbol viewBox="0 0 24 24" id="arrow-left-s-line"><path d="M10.8284 12.0007L15.7782 16.9504L14.364 18.3646L8 12.0007L14.364 5.63672L15.7782 7.05093L10.8284 12.0007Z"></path></symbol><symbol viewBox="0 0 24 24" id="more-fill"><path d="M5 10C3.9 10 3 10.9 3 12C3 13.1 3.9 14 5 14C6.1 14 7 13.1 7 12C7 10.9 6.1 10 5 10ZM19 10C17.9 10 17 10.9 17 12C17 13.1 17.9 14 19 14C20.1 14 21 13.1 21 12C21 10.9 20.1 10 19 10ZM12 10C10.9 10 10 10.9 10 12C10 13.1 10.9 14 12 14C13.1 14 14 13.1 14 12C14 10.9 13.1 10 12 10Z"></path></symbol><symbol viewBox="0 0 24 24" id="bring-forward"><path d="M14 3C14.5523 3 15 3.44772 15 4V9H20C20.5523 9 21 9.44772 21 10V20C21 20.5523 20.5523 21 20 21H10C9.44772 21 9 20.5523 9 20V15H4C3.44772 15 3 14.5523 3 14V4C3 3.44772 3.44772 3 4 3H14ZM13 5H5V13H13V5Z"></path></symbol><symbol viewBox="0 0 24 24" id="hashtag"><path d="M7.78428 14L8.2047 10H4V8H8.41491L8.94043 3H10.9514L10.4259 8H14.4149L14.9404 3H16.9514L16.4259 8H20V10H16.2157L15.7953 14H20V16H15.5851L15.0596 21H13.0486L13.5741 16H9.58509L9.05957 21H7.04855L7.57407 16H4V14H7.78428ZM9.7953 14H13.7843L14.2047 10H10.2157L9.7953 14Z"></path></symbol><symbol viewBox="0 0 24 24" id="customer-service-fill"><path d="M22 17.0022C21.999 19.8731 19.9816 22.2726 17.2872 22.8616L16.6492 20.9476C17.8532 20.7511 18.8765 20.0171 19.4649 19H17C15.8954 19 15 18.1046 15 17V13C15 11.8954 15.8954 11 17 11H19.9381C19.446 7.05369 16.0796 4 12 4C7.92038 4 4.55399 7.05369 4.06189 11H7C8.10457 11 9 11.8954 9 13V17C9 18.1046 8.10457 19 7 19H4C2.89543 19 2 18.1046 2 17V12C2 6.47715 6.47715 2 12 2C17.5228 2 22 6.47715 22 12V12.9987V13V17V17.0013V17.0022Z"></path></symbol><symbol viewBox="0 0 24 24" id="customer-service-line"><path d="M22 17.0022C21.999 19.8731 19.9816 22.2726 17.2872 22.8616L16.6492 20.9476C17.8532 20.7511 18.8765 20.0171 19.4649 19H17C15.8954 19 15 18.1046 15 17V13C15 11.8954 15.8954 11 17 11H19.9381C19.446 7.05369 16.0796 4 12 4C7.92038 4 4.55399 7.05369 4.06189 11H7C8.10457 11 9 11.8954 9 13V17C9 18.1046 8.10457 19 7 19H4C2.89543 19 2 18.1046 2 17V12C2 6.47715 6.47715 2 12 2C17.5228 2 22 6.47715 22 12V12.9987V13V17V17.0013V17.0022ZM20 17V13H17V17H20ZM4 13V17H7V13H4Z"></path></symbol></svg>